# xmcd
#
# Track frame offsets: 
#        150
#        13670
#        31937
#        46134
#        61858
#        72810
#        83635
#        97659
#        112149
#        122488
#        134555
#        149505
#
# Disc length: 2170 seconds
#
# Revision: 5
# Processed by: cddbd v1.4PL0 Copyright (c) Steve Scherf et al.
# Submitted via: ExactAudioCopy v0.95a3
#
DISCID=9b08780c
DTITLE=Jeff Foxworthy - Crank It Up
DYEAR=1996
DGENRE=Comedy
TTITLE0=Redneck Stomp
TTITLE1=S.I.N.G.L.E.
TTITLE2=Party All Night
TTITLE3=Redneck Games
TTITLE4=Big O' Moon
TTITLE5=12 Days of Christmas
TTITLE6=Pure Bred Redneck
TTITLE7=Let Me Drive
TTITLE8=Copenhagen
TTITLE9=Howdy From Maui
TTITLE10='Twas the Night After Christmas
TTITLE11=Still More You Might Be A Redneck If...
EXTD=
EXTT0=
EXTT1=
EXTT2=
EXTT3=
EXTT4=
EXTT5=
EXTT6=
EXTT7=
EXTT8=
EXTT9=
EXTT10=
EXTT11=
PLAYORDER=
